{
    "asset" : {
        "generator" : "Khronos glTF Blender I/O v1.6.16",
        "version" : "2.0"
    },
    "scene" : 0,
    "scenes" : [
        {
            "name" : "Scene",
            "nodes" : [
                0
            ]
        }
    ],
    "nodes" : [
        {
            "mesh" : 0,
            "name" : "floating_rocks",
            "scale" : [
                0.9652440547943115,
                0.9652440547943115,
                0.9652440547943115
            ],
            "translation" : [
                0.10595130920410156,
                2.7259650230407715,
                -0.4520225524902344
            ]
        }
    ],
    "meshes" : [
        {
            "name" : "Cone.002_cell.062",
            "primitives" : [
                {
                    "attributes" : {
                        "POSITION" : 0,
                        "NORMAL" : 1,
                        "TEXCOORD_0" : 2
                    },
                    "indices" : 3
                }
            ]
        }
    ],
    "accessors" : [
        {
            "bufferView" : 0,
            "componentType" : 5126,
            "count" : 7120,
            "max" : [
                10.72231674194336,
                8.043010711669922,
                10.297003746032715
            ],
            "min" : [
                -12.895158767700195,
                -18.771997451782227,
                -9.435646057128906
            ],
            "type" : "VEC3"
        },
        {
            "bufferView" : 1,
            "componentType" : 5126,
            "count" : 7120,
            "type" : "VEC3"
        },
        {
            "bufferView" : 2,
            "componentType" : 5126,
            "count" : 7120,
            "type" : "VEC2"
        },
        {
            "bufferView" : 3,
            "componentType" : 5123,
            "count" : 13392,
            "type" : "SCALAR"
        }
    ],
    "bufferViews" : [
        {
            "buffer" : 0,
            "byteLength" : 85440,
            "byteOffset" : 0
        },
        {
            "buffer" : 0,
            "byteLength" : 85440,
            "byteOffset" : 85440
        },
        {
            "buffer" : 0,
            "byteLength" : 56960,
            "byteOffset" : 170880
        },
        {
            "buffer" : 0,
            "byteLength" : 26784,
            "byteOffset" : 227840
        }
    ],
    "buffers" : [
        {
            "byteLength" : 254624,
            "uri" : "data:application/octet-stream;base64,"
        }
    ]
}
