{
    "asset" : {
        "generator" : "Khronos glTF Blender I/O v1.6.16",
        "version" : "2.0"
    },
    "scene" : 0,
    "scenes" : [
        {
            "name" : "Scene",
            "nodes" : [
                0,
                1,
                2,
                3
            ]
        }
    ],
    "nodes" : [
        {
            "mesh" : 0,
            "name" : "floating_rocks",
            "translation" : [
                0.10595130920410156,
                2.7259650230407715,
                -0.4520225524902344
            ]
        },
        {
            "mesh" : 1,
            "name" : "WindmillUpload",
            "translation" : [
                0,
                15.423840522766113,
                0
            ]
        },
        {
            "mesh" : 2,
            "name" : "WindmillTop",
            "translation" : [
                0,
                15.244632720947266,
                0
            ]
        },
        {
            "mesh" : 3,
            "name" : "WindmillWings",
            "rotation" : [
                0.7071068286895752,
                0,
                0,
                0.7071067094802856
            ],
            "scale" : [
                0.5,
                0.5,
                0.5
            ],
            "translation" : [
                0,
                15.242621421813965,
                0.21467943489551544
            ]
        }
    ],
    "materials" : [
        {
            "doubleSided" : true,
            "name" : "Material",
            "pbrMetallicRoughness" : {
                "baseColorTexture" : {
                    "index" : 0
                },
                "metallicFactor" : 0
            }
        }
    ],
    "meshes" : [
        {
            "name" : "Cone.002_cell.062",
            "primitives" : [
                {
                    "attributes" : {
                        "POSITION" : 0,
                        "NORMAL" : 1,
                        "TEXCOORD_0" : 2
                    },
                    "indices" : 3,
                    "material" : 0
                }
            ]
        },
        {
            "name" : "WindmillUpload",
            "primitives" : [
                {
                    "attributes" : {
                        "POSITION" : 4,
                        "NORMAL" : 5,
                        "TEXCOORD_0" : 6
                    },
                    "indices" : 7,
                    "material" : 0
                }
            ]
        },
        {
            "name" : "WindmillTop",
            "primitives" : [
                {
                    "attributes" : {
                        "POSITION" : 8,
                        "NORMAL" : 9,
                        "TEXCOORD_0" : 10
                    },
                    "indices" : 11,
                    "material" : 0
                }
            ]
        },
        {
            "name" : "WindmillWings",
            "primitives" : [
                {
                    "attributes" : {
                        "POSITION" : 12,
                        "NORMAL" : 13,
                        "TEXCOORD_0" : 14
                    },
                    "indices" : 15,
                    "material" : 0
                }
            ]
        }
    ],
    "textures" : [
        {
            "sampler" : 0,
            "source" : 0
        }
    ],
    "images" : [
        {
            "bufferView" : 4,
            "mimeType" : "image/png",
            "name" : "Texture"
        }
    ],
    "accessors" : [
        {
            "bufferView" : 0,
            "componentType" : 5126,
            "count" : 7120,
            "max" : [
                10.72231674194336,
                8.043010711669922,
                10.297003746032715
            ],
            "min" : [
                -12.895158767700195,
                -18.771997451782227,
                -9.435646057128906
            ],
            "type" : "VEC3"
        },
        {
            "bufferView" : 1,
            "componentType" : 5126,
            "count" : 7120,
            "type" : "VEC3"
        },
        {
            "bufferView" : 2,
            "componentType" : 5126,
            "count" : 7120,
            "type" : "VEC2"
        },
        {
            "bufferView" : 3,
            "componentType" : 5123,
            "count" : 13392,
            "type" : "SCALAR"
        },
        {
            "bufferView" : 5,
            "componentType" : 5126,
            "count" : 1460,
            "max" : [
                2.0802268981933594,
                -2.364746332168579,
                2.2731003761291504
            ],
            "min" : [
                -2.0577495098114014,
                -5.142601013183594,
                -1.7800278663635254
            ],
            "type" : "VEC3"
        },
        {
            "bufferView" : 6,
            "componentType" : 5126,
            "count" : 1460,
            "type" : "VEC3"
        },
        {
            "bufferView" : 7,
            "componentType" : 5126,
            "count" : 1460,
            "type" : "VEC2"
        },
        {
            "bufferView" : 8,
            "componentType" : 5123,
            "count" : 3024,
            "type" : "SCALAR"
        },
        {
            "bufferView" : 9,
            "componentType" : 5126,
            "count" : 808,
            "max" : [
                0.9184104800224304,
                1.1545250415802002,
                0.4920821785926819
            ],
            "min" : [
                -0.9184104800224304,
                -2.4493870735168457,
                -2.424211263656616
            ],
            "type" : "VEC3"
        },
        {
            "bufferView" : 10,
            "componentType" : 5126,
            "count" : 808,
            "type" : "VEC3"
        },
        {
            "bufferView" : 11,
            "componentType" : 5126,
            "count" : 808,
            "type" : "VEC2"
        },
        {
            "bufferView" : 12,
            "componentType" : 5123,
            "count" : 1596,
            "type" : "SCALAR"
        },
        {
            "bufferView" : 13,
            "componentType" : 5126,
            "count" : 1473,
            "max" : [
                4.87508487701416,
                1.566264033317566,
                4.87508487701416
            ],
            "min" : [
                -4.87508487701416,
                -0.35579800605773926,
                -4.87508487701416
            ],
            "type" : "VEC3"
        },
        {
            "bufferView" : 14,
            "componentType" : 5126,
            "count" : 1473,
            "type" : "VEC3"
        },
        {
            "bufferView" : 15,
            "componentType" : 5126,
            "count" : 1473,
            "type" : "VEC2"
        },
        {
            "bufferView" : 16,
            "componentType" : 5123,
            "count" : 2916,
            "type" : "SCALAR"
        }
    ],
    "bufferViews" : [
        {
            "buffer" : 0,
            "byteLength" : 85440,
            "byteOffset" : 0
        },
        {
            "buffer" : 0,
            "byteLength" : 85440,
            "byteOffset" : 85440
        },
        {
            "buffer" : 0,
            "byteLength" : 56960,
            "byteOffset" : 170880
        },
        {
            "buffer" : 0,
            "byteLength" : 26784,
            "byteOffset" : 227840
        },
        {
            "buffer" : 0,
            "byteLength" : 16404,
            "byteOffset" : 254624
        },
        {
            "buffer" : 0,
            "byteLength" : 17520,
            "byteOffset" : 271028
        },
        {
            "buffer" : 0,
            "byteLength" : 17520,
            "byteOffset" : 288548
        },
        {
            "buffer" : 0,
            "byteLength" : 11680,
            "byteOffset" : 306068
        },
        {
            "buffer" : 0,
            "byteLength" : 6048,
            "byteOffset" : 317748
        },
        {
            "buffer" : 0,
            "byteLength" : 9696,
            "byteOffset" : 323796
        },
        {
            "buffer" : 0,
            "byteLength" : 9696,
            "byteOffset" : 333492
        },
        {
            "buffer" : 0,
            "byteLength" : 6464,
            "byteOffset" : 343188
        },
        {
            "buffer" : 0,
            "byteLength" : 3192,
            "byteOffset" : 349652
        },
        {
            "buffer" : 0,
            "byteLength" : 17676,
            "byteOffset" : 352844
        },
        {
            "buffer" : 0,
            "byteLength" : 17676,
            "byteOffset" : 370520
        },
        {
            "buffer" : 0,
            "byteLength" : 11784,
            "byteOffset" : 388196
        },
        {
            "buffer" : 0,
            "byteLength" : 5832,
            "byteOffset" : 399980
        }
    ],
    "samplers" : [
        {
            "magFilter" : 9729,
            "minFilter" : 9987
        }
    ],
    "buffers" : [
        {
            "byteLength" : 405812,
            "uri" : "data:application/octet-stream;base64,"
        }
    ]
}
