{
    "asset" : {
        "generator" : "Khronos glTF Blender I/O v1.6.16",
        "version" : "2.0"
    },
    "scene" : 0,
    "scenes" : [
        {
            "name" : "Scene",
            "nodes" : [
                0
            ]
        }
    ],
    "nodes" : [
        {
            "mesh" : 0,
            "name" : "WindmillTop",
            "rotation" : [
                0.7071068286895752,
                0,
                0,
                0.7071067094802856
            ],
            "scale" : [
                0.5,
                0.5,
                0.5
            ],
            "translation" : [
                0,
                14.82870101928711,
                0
            ]
        }
    ],
    "materials" : [
        {
            "doubleSided" : true,
            "name" : "Roof.001",
            "pbrMetallicRoughness" : {
                "baseColorFactor" : [
                    0.800000011920929,
                    0.800000011920929,
                    0.800000011920929,
                    1
                ],
                "metallicFactor" : 0,
                "roughnessFactor" : 0.5
            }
        },
        {
            "doubleSided" : true,
            "name" : "Wood.001",
            "pbrMetallicRoughness" : {
                "baseColorFactor" : [
                    0.800000011920929,
                    0.800000011920929,
                    0.800000011920929,
                    1
                ],
                "metallicFactor" : 0,
                "roughnessFactor" : 0.5
            }
        },
        {
            "doubleSided" : true,
            "name" : "Window.001",
            "pbrMetallicRoughness" : {
                "baseColorFactor" : [
                    0.800000011920929,
                    0.800000011920929,
                    0.800000011920929,
                    1
                ],
                "metallicFactor" : 0,
                "roughnessFactor" : 0.5
            }
        },
        {
            "doubleSided" : true,
            "name" : "Plaster.001",
            "pbrMetallicRoughness" : {
                "baseColorFactor" : [
                    0.800000011920929,
                    0.800000011920929,
                    0.800000011920929,
                    1
                ],
                "metallicFactor" : 0,
                "roughnessFactor" : 0.5
            }
        }
    ],
    "meshes" : [
        {
            "name" : "WindmillTop",
            "primitives" : [
                {
                    "attributes" : {
                        "POSITION" : 0,
                        "NORMAL" : 1,
                        "TEXCOORD_0" : 2
                    },
                    "indices" : 3,
                    "material" : 0
                },
                {
                    "attributes" : {
                        "POSITION" : 4,
                        "NORMAL" : 5,
                        "TEXCOORD_0" : 6
                    },
                    "indices" : 7,
                    "material" : 1
                },
                {
                    "attributes" : {
                        "POSITION" : 8,
                        "NORMAL" : 9,
                        "TEXCOORD_0" : 10
                    },
                    "indices" : 11,
                    "material" : 2
                },
                {
                    "attributes" : {
                        "POSITION" : 12,
                        "NORMAL" : 13,
                        "TEXCOORD_0" : 14
                    },
                    "indices" : 15,
                    "material" : 3
                }
            ]
        }
    ],
    "accessors" : [
        {
            "bufferView" : 0,
            "componentType" : 5126,
            "count" : 88,
            "max" : [
                1.0295649766921997,
                0.38167598843574524,
                -0.7837809920310974
            ],
            "min" : [
                -1.0304689407348633,
                -3.8676300048828125,
                -2.3090500831604004
            ],
            "type" : "VEC3"
        },
        {
            "bufferView" : 1,
            "componentType" : 5126,
            "count" : 88,
            "type" : "VEC3"
        },
        {
            "bufferView" : 2,
            "componentType" : 5126,
            "count" : 88,
            "type" : "VEC2"
        },
        {
            "bufferView" : 3,
            "componentType" : 5123,
            "count" : 132,
            "type" : "SCALAR"
        },
        {
            "bufferView" : 4,
            "componentType" : 5126,
            "count" : 326,
            "max" : [
                1.8368209600448608,
                0.9841650128364563,
                4.898774147033691
            ],
            "min" : [
                -1.8368209600448608,
                -4.848423004150391,
                -1.4903110265731812
            ],
            "type" : "VEC3"
        },
        {
            "bufferView" : 5,
            "componentType" : 5126,
            "count" : 326,
            "type" : "VEC3"
        },
        {
            "bufferView" : 6,
            "componentType" : 5126,
            "count" : 326,
            "type" : "VEC2"
        },
        {
            "bufferView" : 7,
            "componentType" : 5123,
            "count" : 666,
            "type" : "SCALAR"
        },
        {
            "bufferView" : 8,
            "componentType" : 5126,
            "count" : 12,
            "max" : [
                0.897782027721405,
                -2.3303990364074707,
                -0.052983999252319336
            ],
            "min" : [
                -0.8951929807662964,
                -3.8025569915771484,
                -0.7173479795455933
            ],
            "type" : "VEC3"
        },
        {
            "bufferView" : 9,
            "componentType" : 5126,
            "count" : 12,
            "type" : "VEC3"
        },
        {
            "bufferView" : 10,
            "componentType" : 5126,
            "count" : 12,
            "type" : "VEC2"
        },
        {
            "bufferView" : 11,
            "componentType" : 5123,
            "count" : 18,
            "type" : "SCALAR"
        },
        {
            "bufferView" : 12,
            "componentType" : 5126,
            "count" : 312,
            "max" : [
                1.7585289478302002,
                0.9058730006217957,
                4.320365905761719
            ],
            "min" : [
                -1.7585300207138062,
                -3.786389112472534,
                -2.2758560180664062
            ],
            "type" : "VEC3"
        },
        {
            "bufferView" : 13,
            "componentType" : 5126,
            "count" : 312,
            "type" : "VEC3"
        },
        {
            "bufferView" : 14,
            "componentType" : 5126,
            "count" : 312,
            "type" : "VEC2"
        },
        {
            "bufferView" : 15,
            "componentType" : 5123,
            "count" : 780,
            "type" : "SCALAR"
        }
    ],
    "bufferViews" : [
        {
            "buffer" : 0,
            "byteLength" : 1056,
            "byteOffset" : 0
        },
        {
            "buffer" : 0,
            "byteLength" : 1056,
            "byteOffset" : 1056
        },
        {
            "buffer" : 0,
            "byteLength" : 704,
            "byteOffset" : 2112
        },
        {
            "buffer" : 0,
            "byteLength" : 264,
            "byteOffset" : 2816
        },
        {
            "buffer" : 0,
            "byteLength" : 3912,
            "byteOffset" : 3080
        },
        {
            "buffer" : 0,
            "byteLength" : 3912,
            "byteOffset" : 6992
        },
        {
            "buffer" : 0,
            "byteLength" : 2608,
            "byteOffset" : 10904
        },
        {
            "buffer" : 0,
            "byteLength" : 1332,
            "byteOffset" : 13512
        },
        {
            "buffer" : 0,
            "byteLength" : 144,
            "byteOffset" : 14844
        },
        {
            "buffer" : 0,
            "byteLength" : 144,
            "byteOffset" : 14988
        },
        {
            "buffer" : 0,
            "byteLength" : 96,
            "byteOffset" : 15132
        },
        {
            "buffer" : 0,
            "byteLength" : 36,
            "byteOffset" : 15228
        },
        {
            "buffer" : 0,
            "byteLength" : 3744,
            "byteOffset" : 15264
        },
        {
            "buffer" : 0,
            "byteLength" : 3744,
            "byteOffset" : 19008
        },
        {
            "buffer" : 0,
            "byteLength" : 2496,
            "byteOffset" : 22752
        },
        {
            "buffer" : 0,
            "byteLength" : 1560,
            "byteOffset" : 25248
        }
    ],
    "buffers" : [
        {
            "byteLength" : 26808,
            "uri" : "data:application/octet-stream;base64,"
        }
    ]
}
