{
    "asset" : {
        "generator" : "Khronos glTF Blender I/O v1.6.16",
        "version" : "2.0"
    },
    "scene" : 0,
    "scenes" : [
        {
            "name" : "Scene",
            "nodes" : [
                0
            ]
        }
    ],
    "nodes" : [
        {
            "mesh" : 0,
            "name" : "WindmillWings",
            "rotation" : [
                0.7071068286895752,
                0,
                0,
                0.7071067094802856
            ],
            "scale" : [
                0.5,
                0.5,
                0.5
            ],
            "translation" : [
                0,
                14.893787384033203,
                0
            ]
        }
    ],
    "materials" : [
        {
            "doubleSided" : true,
            "name" : "Wood.002",
            "pbrMetallicRoughness" : {
                "baseColorFactor" : [
                    0.800000011920929,
                    0.800000011920929,
                    0.800000011920929,
                    1
                ],
                "metallicFactor" : 0,
                "roughnessFactor" : 0.5
            }
        },
        {
            "doubleSided" : true,
            "name" : "Cloth",
            "pbrMetallicRoughness" : {
                "baseColorFactor" : [
                    0.800000011920929,
                    0.800000011920929,
                    0.800000011920929,
                    1
                ],
                "metallicFactor" : 0,
                "roughnessFactor" : 0.5
            }
        }
    ],
    "meshes" : [
        {
            "name" : "WindmillWings",
            "primitives" : [
                {
                    "attributes" : {
                        "POSITION" : 0,
                        "NORMAL" : 1,
                        "TEXCOORD_0" : 2
                    },
                    "indices" : 3,
                    "material" : 0
                },
                {
                    "attributes" : {
                        "POSITION" : 4,
                        "NORMAL" : 5,
                        "TEXCOORD_0" : 6
                    },
                    "indices" : 7,
                    "material" : 1
                }
            ]
        }
    ],
    "accessors" : [
        {
            "bufferView" : 0,
            "componentType" : 5126,
            "count" : 620,
            "max" : [
                4.87508487701416,
                1.566264033317566,
                4.87508487701416
            ],
            "min" : [
                -4.87508487701416,
                -0.35579800605773926,
                -4.87508487701416
            ],
            "type" : "VEC3"
        },
        {
            "bufferView" : 1,
            "componentType" : 5126,
            "count" : 620,
            "type" : "VEC3"
        },
        {
            "bufferView" : 2,
            "componentType" : 5126,
            "count" : 620,
            "type" : "VEC2"
        },
        {
            "bufferView" : 3,
            "componentType" : 5123,
            "count" : 996,
            "type" : "SCALAR"
        },
        {
            "bufferView" : 4,
            "componentType" : 5126,
            "count" : 840,
            "max" : [
                4.804975986480713,
                1.2637319564819336,
                4.804975986480713
            ],
            "min" : [
                -4.804975986480713,
                1.0429400205612183,
                -4.804975986480713
            ],
            "type" : "VEC3"
        },
        {
            "bufferView" : 5,
            "componentType" : 5126,
            "count" : 840,
            "type" : "VEC3"
        },
        {
            "bufferView" : 6,
            "componentType" : 5126,
            "count" : 840,
            "type" : "VEC2"
        },
        {
            "bufferView" : 7,
            "componentType" : 5123,
            "count" : 1920,
            "type" : "SCALAR"
        }
    ],
    "bufferViews" : [
        {
            "buffer" : 0,
            "byteLength" : 7440,
            "byteOffset" : 0
        },
        {
            "buffer" : 0,
            "byteLength" : 7440,
            "byteOffset" : 7440
        },
        {
            "buffer" : 0,
            "byteLength" : 4960,
            "byteOffset" : 14880
        },
        {
            "buffer" : 0,
            "byteLength" : 1992,
            "byteOffset" : 19840
        },
        {
            "buffer" : 0,
            "byteLength" : 10080,
            "byteOffset" : 21832
        },
        {
            "buffer" : 0,
            "byteLength" : 10080,
            "byteOffset" : 31912
        },
        {
            "buffer" : 0,
            "byteLength" : 6720,
            "byteOffset" : 41992
        },
        {
            "buffer" : 0,
            "byteLength" : 3840,
            "byteOffset" : 48712
        }
    ],
    "buffers" : [
        {
            "byteLength" : 52552,
            "uri" : "data:application/octet-stream;base64,"
        }
    ]
}
