{
    "asset" : {
        "generator" : "Khronos glTF Blender I/O v1.6.16",
        "version" : "2.0"
    },
    "scene" : 0,
    "scenes" : [
        {
            "name" : "Scene",
            "nodes" : [
                0
            ]
        }
    ],
    "nodes" : [
        {
            "mesh" : 0,
            "name" : "WindmillUpload",
            "rotation" : [
                0.7071068286895752,
                0,
                0,
                0.7071067094802856
            ],
            "scale" : [
                0.5,
                0.5,
                0.5
            ],
            "translation" : [
                0,
                15.114784240722656,
                0
            ]
        }
    ],
    "materials" : [
        {
            "doubleSided" : true,
            "name" : "Bricks",
            "pbrMetallicRoughness" : {
                "baseColorFactor" : [
                    0.800000011920929,
                    0.800000011920929,
                    0.800000011920929,
                    1
                ],
                "metallicFactor" : 0,
                "roughnessFactor" : 0.5
            }
        },
        {
            "doubleSided" : true,
            "name" : "Plaster",
            "pbrMetallicRoughness" : {
                "baseColorFactor" : [
                    0.800000011920929,
                    0.800000011920929,
                    0.800000011920929,
                    1
                ],
                "metallicFactor" : 0,
                "roughnessFactor" : 0.5
            }
        },
        {
            "doubleSided" : true,
            "name" : "Wood",
            "pbrMetallicRoughness" : {
                "baseColorFactor" : [
                    0.800000011920929,
                    0.800000011920929,
                    0.800000011920929,
                    1
                ],
                "metallicFactor" : 0,
                "roughnessFactor" : 0.5
            }
        },
        {
            "doubleSided" : true,
            "name" : "Window",
            "pbrMetallicRoughness" : {
                "baseColorFactor" : [
                    0.800000011920929,
                    0.800000011920929,
                    0.800000011920929,
                    1
                ],
                "metallicFactor" : 0,
                "roughnessFactor" : 0.5
            }
        },
        {
            "doubleSided" : true,
            "name" : "Stone",
            "pbrMetallicRoughness" : {
                "baseColorFactor" : [
                    0.800000011920929,
                    0.800000011920929,
                    0.800000011920929,
                    1
                ],
                "metallicFactor" : 0,
                "roughnessFactor" : 0.5
            }
        },
        {
            "doubleSided" : true,
            "name" : "Roof",
            "pbrMetallicRoughness" : {
                "baseColorFactor" : [
                    0.800000011920929,
                    0.800000011920929,
                    0.800000011920929,
                    1
                ],
                "metallicFactor" : 0,
                "roughnessFactor" : 0.5
            }
        },
        {
            "doubleSided" : true,
            "name" : "Door",
            "pbrMetallicRoughness" : {
                "baseColorFactor" : [
                    0.800000011920929,
                    0.800000011920929,
                    0.800000011920929,
                    1
                ],
                "metallicFactor" : 0,
                "roughnessFactor" : 0.5
            }
        }
    ],
    "meshes" : [
        {
            "name" : "WindmillUpload",
            "primitives" : [
                {
                    "attributes" : {
                        "POSITION" : 0,
                        "NORMAL" : 1,
                        "TEXCOORD_0" : 2
                    },
                    "indices" : 3,
                    "material" : 0
                },
                {
                    "attributes" : {
                        "POSITION" : 4,
                        "NORMAL" : 5,
                        "TEXCOORD_0" : 6
                    },
                    "indices" : 7,
                    "material" : 1
                },
                {
                    "attributes" : {
                        "POSITION" : 8,
                        "NORMAL" : 9,
                        "TEXCOORD_0" : 10
                    },
                    "indices" : 11,
                    "material" : 2
                },
                {
                    "attributes" : {
                        "POSITION" : 12,
                        "NORMAL" : 13,
                        "TEXCOORD_0" : 14
                    },
                    "indices" : 15,
                    "material" : 3
                },
                {
                    "attributes" : {
                        "POSITION" : 16,
                        "NORMAL" : 17,
                        "TEXCOORD_0" : 18
                    },
                    "indices" : 19,
                    "material" : 4
                },
                {
                    "attributes" : {
                        "POSITION" : 20,
                        "NORMAL" : 21,
                        "TEXCOORD_0" : 22
                    },
                    "indices" : 23,
                    "material" : 5
                },
                {
                    "attributes" : {
                        "POSITION" : 24,
                        "NORMAL" : 25,
                        "TEXCOORD_0" : 26
                    },
                    "indices" : 27,
                    "material" : 6
                }
            ]
        }
    ],
    "accessors" : [
        {
            "bufferView" : 0,
            "componentType" : 5126,
            "count" : 126,
            "max" : [
                3.896332025527954,
                3.7661900520324707,
                10.285202026367188
            ],
            "min" : [
                -2.9934940338134766,
                -3.478847026824951,
                8.027398109436035
            ],
            "type" : "VEC3"
        },
        {
            "bufferView" : 1,
            "componentType" : 5126,
            "count" : 126,
            "type" : "VEC3"
        },
        {
            "bufferView" : 2,
            "componentType" : 5126,
            "count" : 126,
            "type" : "VEC2"
        },
        {
            "bufferView" : 3,
            "componentType" : 5123,
            "count" : 276,
            "type" : "SCALAR"
        },
        {
            "bufferView" : 4,
            "componentType" : 5126,
            "count" : 186,
            "max" : [
                3.896332025527954,
                3.7661900520324707,
                9.129953384399414
            ],
            "min" : [
                -2.9934940338134766,
                -3.478847026824951,
                4.77248477935791
            ],
            "type" : "VEC3"
        },
        {
            "bufferView" : 5,
            "componentType" : 5126,
            "count" : 186,
            "type" : "VEC3"
        },
        {
            "bufferView" : 6,
            "componentType" : 5126,
            "count" : 186,
            "type" : "VEC2"
        },
        {
            "bufferView" : 7,
            "componentType" : 5123,
            "count" : 414,
            "type" : "SCALAR"
        },
        {
            "bufferView" : 8,
            "componentType" : 5126,
            "count" : 640,
            "max" : [
                3.950129985809326,
                3.8906240463256836,
                10.245718955993652
            ],
            "min" : [
                -2.707396984100342,
                -3.560054063796997,
                4.729493141174316
            ],
            "type" : "VEC3"
        },
        {
            "bufferView" : 9,
            "componentType" : 5126,
            "count" : 640,
            "type" : "VEC3"
        },
        {
            "bufferView" : 10,
            "componentType" : 5126,
            "count" : 640,
            "type" : "VEC2"
        },
        {
            "bufferView" : 11,
            "componentType" : 5123,
            "count" : 1698,
            "type" : "SCALAR"
        },
        {
            "bufferView" : 12,
            "componentType" : 5126,
            "count" : 8,
            "max" : [
                3.4552199840545654,
                3.8735129833221436,
                8.76342487335205
            ],
            "min" : [
                2.6892569065093994,
                -1.963299036026001,
                8.099061012268066
            ],
            "type" : "VEC3"
        },
        {
            "bufferView" : 13,
            "componentType" : 5126,
            "count" : 8,
            "type" : "VEC3"
        },
        {
            "bufferView" : 14,
            "componentType" : 5126,
            "count" : 8,
            "type" : "VEC2"
        },
        {
            "bufferView" : 15,
            "componentType" : 5123,
            "count" : 12,
            "type" : "SCALAR"
        },
        {
            "bufferView" : 16,
            "componentType" : 5126,
            "count" : 263,
            "max" : [
                2.358302116394043,
                4.546202182769775,
                10.258440017700195
            ],
            "min" : [
                -4.115499019622803,
                -1.520643949508667,
                7.9074931144714355
            ],
            "type" : "VEC3"
        },
        {
            "bufferView" : 17,
            "componentType" : 5126,
            "count" : 263,
            "type" : "VEC3"
        },
        {
            "bufferView" : 18,
            "componentType" : 5126,
            "count" : 263,
            "type" : "VEC2"
        },
        {
            "bufferView" : 19,
            "componentType" : 5123,
            "count" : 492,
            "type" : "SCALAR"
        },
        {
            "bufferView" : 20,
            "componentType" : 5126,
            "count" : 68,
            "max" : [
                4.160453796386719,
                3.9918479919433594,
                8.278169631958008
            ],
            "min" : [
                -3.240257978439331,
                -1.9248859882354736,
                6.023756980895996
            ],
            "type" : "VEC3"
        },
        {
            "bufferView" : 21,
            "componentType" : 5126,
            "count" : 68,
            "type" : "VEC3"
        },
        {
            "bufferView" : 22,
            "componentType" : 5126,
            "count" : 68,
            "type" : "VEC2"
        },
        {
            "bufferView" : 23,
            "componentType" : 5123,
            "count" : 108,
            "type" : "SCALAR"
        },
        {
            "bufferView" : 24,
            "componentType" : 5126,
            "count" : 12,
            "max" : [
                2.3306760787963867,
                3.5630030632019043,
                9.83175277709961
            ],
            "min" : [
                -2.80869197845459,
                -1.3905609846115112,
                8.024431228637695
            ],
            "type" : "VEC3"
        },
        {
            "bufferView" : 25,
            "componentType" : 5126,
            "count" : 12,
            "type" : "VEC3"
        },
        {
            "bufferView" : 26,
            "componentType" : 5126,
            "count" : 12,
            "type" : "VEC2"
        },
        {
            "bufferView" : 27,
            "componentType" : 5123,
            "count" : 24,
            "type" : "SCALAR"
        }
    ],
    "bufferViews" : [
        {
            "buffer" : 0,
            "byteLength" : 1512,
            "byteOffset" : 0
        },
        {
            "buffer" : 0,
            "byteLength" : 1512,
            "byteOffset" : 1512
        },
        {
            "buffer" : 0,
            "byteLength" : 1008,
            "byteOffset" : 3024
        },
        {
            "buffer" : 0,
            "byteLength" : 552,
            "byteOffset" : 4032
        },
        {
            "buffer" : 0,
            "byteLength" : 2232,
            "byteOffset" : 4584
        },
        {
            "buffer" : 0,
            "byteLength" : 2232,
            "byteOffset" : 6816
        },
        {
            "buffer" : 0,
            "byteLength" : 1488,
            "byteOffset" : 9048
        },
        {
            "buffer" : 0,
            "byteLength" : 828,
            "byteOffset" : 10536
        },
        {
            "buffer" : 0,
            "byteLength" : 7680,
            "byteOffset" : 11364
        },
        {
            "buffer" : 0,
            "byteLength" : 7680,
            "byteOffset" : 19044
        },
        {
            "buffer" : 0,
            "byteLength" : 5120,
            "byteOffset" : 26724
        },
        {
            "buffer" : 0,
            "byteLength" : 3396,
            "byteOffset" : 31844
        },
        {
            "buffer" : 0,
            "byteLength" : 96,
            "byteOffset" : 35240
        },
        {
            "buffer" : 0,
            "byteLength" : 96,
            "byteOffset" : 35336
        },
        {
            "buffer" : 0,
            "byteLength" : 64,
            "byteOffset" : 35432
        },
        {
            "buffer" : 0,
            "byteLength" : 24,
            "byteOffset" : 35496
        },
        {
            "buffer" : 0,
            "byteLength" : 3156,
            "byteOffset" : 35520
        },
        {
            "buffer" : 0,
            "byteLength" : 3156,
            "byteOffset" : 38676
        },
        {
            "buffer" : 0,
            "byteLength" : 2104,
            "byteOffset" : 41832
        },
        {
            "buffer" : 0,
            "byteLength" : 984,
            "byteOffset" : 43936
        },
        {
            "buffer" : 0,
            "byteLength" : 816,
            "byteOffset" : 44920
        },
        {
            "buffer" : 0,
            "byteLength" : 816,
            "byteOffset" : 45736
        },
        {
            "buffer" : 0,
            "byteLength" : 544,
            "byteOffset" : 46552
        },
        {
            "buffer" : 0,
            "byteLength" : 216,
            "byteOffset" : 47096
        },
        {
            "buffer" : 0,
            "byteLength" : 144,
            "byteOffset" : 47312
        },
        {
            "buffer" : 0,
            "byteLength" : 144,
            "byteOffset" : 47456
        },
        {
            "buffer" : 0,
            "byteLength" : 96,
            "byteOffset" : 47600
        },
        {
            "buffer" : 0,
            "byteLength" : 48,
            "byteOffset" : 47696
        }
    ],
    "buffers" : [
        {
            "byteLength" : 47744,
            "uri" : "data:application/octet-stream;base64,"
        }
    ]
}
